<svg xmlns="http://www.w3.org/2000/svg" viewBox="0 0 512 512">
  <defs>
    <linearGradient id="bg" x1="0" y1="0" x2="512" y2="512" gradientUnits="userSpaceOnUse">
      <stop offset="0%" stop-color="#D4887D"/>
      <stop offset="100%" stop-color="#B56B55"/>
    </linearGradient>
  </defs>

  <!-- App icon background -->
  <rect width="512" height="512" rx="108" fill="url(#bg)"/>

  <!-- Note paper -->
  <path d="M 136 76 H 344 L 404 136 V 432 C 404 444 394 454 382 454 H 136 C 124 454 114 444 114 432 V 96 C 114 84 124 76 136 76 Z" fill="#FFFFFF"/>

  <!-- Corner fold -->
  <path d="M 344 76 V 116 C 344 128 354 136 366 136 H 404 L 344 76 Z" fill="#E8DDD0"/>

  <!-- Text lines -->
  <rect x="158" y="192" width="202" height="14" rx="7" fill="#D4887D"/>
  <rect x="158" y="248" width="164" height="14" rx="7" fill="#D4887D" opacity="0.6"/>
  <rect x="158" y="304" width="124" height="14" rx="7" fill="#D4887D" opacity="0.35"/>

  <!-- Checkmark circle -->
  <circle cx="200" cy="384" r="28" fill="#D4887D"/>
  <path d="M 186 384 L 196 395 L 216 371" stroke="#FFFFFF" stroke-width="6" stroke-linecap="round" stroke-linejoin="round" fill="none"/>
</svg>
